<?xml version="1.0" encoding="UTF-8"?>
<svg version="1.1" xmlns="http://www.w3.org/2000/svg" width="320" height="320">
<path d="M0 0 C105.6 0 211.2 0 320 0 C320 105.6 320 211.2 320 320 C214.4 320 108.8 320 0 320 C0 214.4 0 108.8 0 0 Z " fill="#FEFEFE" transform="translate(0,0)"/>
<path d="M0 0 C0.33 1.32 0.66 2.64 1 4 C-0.65 4.33 -2.3 4.66 -4 5 C-3.67 7.31 -3.34 9.62 -3 12 C-0.69 11.01 1.62 10.02 4 9 C4.33 10.32 4.66 11.64 5 13 C4.34 13 3.68 13 3 13 C3 13.66 3 14.32 3 15 C3.639375 15.12375 4.27875 15.2475 4.9375 15.375 C5.618125 15.58125 6.29875 15.7875 7 16 C8.73750455 19.47500911 8.58588811 23.20856317 8 27 C5.30081929 30.35352755 3.68563364 30.90377072 -0.5625 31.5 C-4 31 -4 31 -6.4375 29.375 C-8.41041808 26.37616451 -8.39152344 24.52371092 -8 21 C-7.67 20.67 -7.34 20.34 -7 20 C-7.99 19.67 -8.98 19.34 -10 19 C-10.6875 16.9375 -10.6875 16.9375 -11 15 C-9.35 14.67 -7.7 14.34 -6 14 C-6.66 12.02 -7.32 10.04 -8 8 C-9.98 8.66 -11.96 9.32 -14 10 C-14.33 8.68 -14.66 7.36 -15 6 C-13.06629769 4.99267601 -11.12789694 3.99436712 -9.1875 3 C-8.10855469 2.443125 -7.02960938 1.88625 -5.91796875 1.3125 C-3 0 -3 0 0 0 Z " fill="#F9F2F2" transform="translate(280,108)"/>
<path d="M0 0 C2.08218362 -0.10832169 4.16599129 -0.18573541 6.25 -0.25 C7.99023438 -0.31960937 7.99023438 -0.31960937 9.765625 -0.390625 C13 0 13 0 15.390625 1.828125 C17 4 17 4 17.5 7 C17 10 17 10 15.6875 12.3125 C11.3632758 15.02771055 7.05542291 14.75926558 2 15 C5.63 17.64 9.26 20.28 13 23 C13 21.02 13 19.04 13 17 C13.99 17 14.98 17 16 17 C15.67 20.96 15.34 24.92 15 29 C11.86003369 27.43001685 9.13968349 25.82978589 6.25 23.875 C5.45078125 23.33617187 4.6515625 22.79734375 3.828125 22.2421875 C3.22484375 21.83226562 2.6215625 21.42234375 2 21 C2 22.65 2 24.3 2 26 C1.01 25.67 0.02 25.34 -1 25 C-1.09038099 19.84828377 -0.84681133 15.08086796 0 10 C5.94 9.505 5.94 9.505 12 9 C12 7.68 12 6.36 12 5 C8.04 4.67 4.08 4.34 0 4 C0 2.68 0 1.36 0 0 Z " fill="#A6252B" transform="translate(277,164)"/>
<path d="M0 0 C3.5994613 0.8678543 5.00552635 2.42463556 6.9765625 5.4765625 C7.35234268 8.39608543 7.00814319 10.72568067 5.9765625 13.4765625 C3.8515625 16.0390625 3.8515625 16.0390625 0.9765625 17.4765625 C-3.3085041 17.55173911 -5.25346907 17.16755981 -8.4609375 14.2890625 C-10.32559748 10.93267454 -10.6538136 9.2588191 -10.0234375 5.4765625 C-7.61423415 0.85892275 -5.27797762 -0.37558642 0 0 Z " fill="#A31D23" transform="translate(124.0234375,277.5234375)"/>
<path d="M0 0 C3.80470451 0.7133821 5.41196019 1.67868421 8 4.5625 C9.0625 8 9.0625 8 9 11.5625 C7.23358828 14.36439446 5.96950178 16.07774911 3 17.5625 C0.125 17.875 0.125 17.875 -3 17.5625 C-6.27065449 14.91061798 -7.81624022 12.94069831 -8.375 8.75 C-8 5.5625 -8 5.5625 -5.875 2.6875 C-3 0.5625 -3 0.5625 0 0 Z " fill="#A8292F" transform="translate(109,34.4375)"/>
<path d="M0 0 C2.12890625 0.4140625 2.12890625 0.4140625 4.69140625 1.9765625 C6.71816083 5.41323331 6.74877385 7.48823436 6.12890625 11.4140625 C4.06640625 14.3515625 4.06640625 14.3515625 1.12890625 16.4140625 C-2.83585781 17.04007788 -4.86871396 17.07352289 -8.24609375 14.8515625 C-10.4233566 11.58566822 -10.87109375 9.33422384 -10.87109375 5.4140625 C-8.41856616 0.17457174 -5.37682134 -0.33660496 0 0 Z " fill="#A31F25" transform="translate(29.87109375,170.5859375)"/>
<path d="M0 0 C2.12890625 0.4140625 2.12890625 0.4140625 4.69140625 1.9765625 C6.71816083 5.41323331 6.74877385 7.48823436 6.12890625 11.4140625 C4.06640625 14.3515625 4.06640625 14.3515625 1.12890625 16.4140625 C-2.83585781 17.04007788 -4.86871396 17.07352289 -8.24609375 14.8515625 C-10.4233566 11.58566822 -10.87109375 9.33422384 -10.87109375 5.4140625 C-8.41856616 0.17457174 -5.37682134 -0.33660496 0 0 Z " fill="#A42227" transform="translate(30.87109375,135.5859375)"/>
<path d="M0 0 C5.5026341 1.60076628 5.5026341 1.60076628 7.4375 4 C8.02997014 8.59164356 8.00222435 10.87055129 5.9375 15 C2.90781592 17.42374727 1.14987623 17.74320508 -2.65625 17.48046875 C-4.5625 17 -4.5625 17 -7.0625 14.9375 C-8.95725662 11.22693494 -9.22404724 9.11629392 -8.5625 5 C-5.9014838 1.12943098 -4.7582571 0 0 0 Z " fill="#A31F25" transform="translate(188.5625,29)"/>
<path d="M0 0 C0 1.32 0 2.64 0 4 C-1.98 4.99 -1.98 4.99 -4 6 C-2.02 6.99 -0.04 7.98 2 9 C0.54744301 12.82946843 -1.42895561 14.12050295 -5 16 C-0.545 15.505 -0.545 15.505 4 15 C4.33 16.32 4.66 17.64 5 19 C2.35536978 19.52773343 -0.29039393 20.04747257 -2.9375 20.5625 C-3.69224609 20.71396484 -4.44699219 20.86542969 -5.22460938 21.02148438 C-7.14185767 21.39117799 -9.0705525 21.70042238 -11 22 C-12 21 -12 21 -12.4375 18.6875 C-12 16 -12 16 -9.125 13.6875 C-6 12 -6 12 -4 12 C-4 11.34 -4 10.68 -4 10 C-4.71027344 10.01160156 -5.42054687 10.02320313 -6.15234375 10.03515625 C-7.07144531 10.04417969 -7.99054687 10.05320313 -8.9375 10.0625 C-9.85402344 10.07410156 -10.77054688 10.08570313 -11.71484375 10.09765625 C-14 10 -14 10 -15 9 C-15.04063832 7.33382885 -15.042721 5.66611905 -15 4 C-12.87607494 3.3299166 -10.75082476 2.66403203 -8.625 2 C-7.44164062 1.62875 -6.25828125 1.2575 -5.0390625 0.875 C-2 0 -2 0 0 0 Z " fill="#A0161C" transform="translate(37,188)"/>
<path d="M0 0 C1.65 0 3.3 0 5 0 C5.33 1.98 5.66 3.96 6 6 C6.66 6 7.32 6 8 6 C8.33 4.35 8.66 2.7 9 1 C14.28 1 19.56 1 25 1 C25 1.99 25 2.98 25 4 C24.01 4 23.02 4 22 4 C22 8.29 22 12.58 22 17 C20.68 17 19.36 17 18 17 C18 12.71 18 8.42 18 4 C12.19873364 4.30519869 12.19873364 4.30519869 10.1875 7.125 C8.82406003 10.42595992 8.34746166 13.45589111 8 17 C6.35 17 4.7 17 3 17 C3.061875 15.865625 3.12375 14.73125 3.1875 13.5625 C3.21380222 8.66152009 1.76012394 4.526033 0 0 Z " fill="#A42127" transform="translate(144,283)"/>
<path d="M0 0 C4.40824473 2.90299043 8.71640781 5.91581363 13 9 C12.34 10.32 11.68 11.64 11 13 C7.04 13 3.08 13 -1 13 C1.31 14.65 3.62 16.3 6 18 C5.67 18.99 5.34 19.98 5 21 C1.0479482 20.41827275 -1.22095053 18.44842259 -4.25 15.9375 C-5.14203125 15.20402344 -6.0340625 14.47054687 -6.953125 13.71484375 C-7.62859375 13.14894531 -8.3040625 12.58304688 -9 12 C-7.82421875 10.015625 -7.82421875 10.015625 -6 8 C-3.51953125 7.609375 -3.51953125 7.609375 -0.8125 7.75 C0.08855469 7.78609375 0.98960938 7.8221875 1.91796875 7.859375 C2.94857422 7.92898437 2.94857422 7.92898437 4 8 C1.94766315 5.7522025 0.99332739 4.9977758 -2 4 C-1.34 2.68 -0.68 1.36 0 0 Z " fill="#A7272D" transform="translate(53,73)"/>
<path d="M0 0 C1.65 0.33 3.3 0.66 5 1 C5.99 3.97 6.98 6.94 8 10 C8.99 8.02 9.98 6.04 11 4 C11.99 4.33 12.98 4.66 14 5 C12.33333333 10 10.66666667 15 9 20 C6.525 19.01 6.525 19.01 4 18 C3.67 14.04 3.34 10.08 3 6 C2.34 6 1.68 6 1 6 C0.87625 6.721875 0.7525 7.44375 0.625 8.1875 C0.0095069 10.95721894 -0.88444374 13.3970354 -2 16 C-2.99 15.67 -3.98 15.34 -5 15 C-4.43174347 9.45949887 -2.37113483 4.96284034 0 0 Z " fill="#A92D32" transform="translate(202,34)"/>
<path d="M0 0 C0.98163422 1.93625098 1.96022454 3.87404539 2.9375 5.8125 C3.48277344 6.89144531 4.02804688 7.97039062 4.58984375 9.08203125 C6 12 6 12 7 15 C3.8040576 16.00772958 2.42822437 16.19442012 -0.67578125 14.78515625 C-1.54589844 14.21667969 -2.41601562 13.64820313 -3.3125 13.0625 C-4.19550781 12.49660156 -5.07851562 11.93070312 -5.98828125 11.34765625 C-6.65214844 10.90292969 -7.31601563 10.45820313 -8 10 C-7.62746094 10.54269531 -7.25492188 11.08539063 -6.87109375 11.64453125 C-6.16146484 12.71767578 -6.16146484 12.71767578 -5.4375 13.8125 C-4.72400391 14.87404297 -4.72400391 14.87404297 -3.99609375 15.95703125 C-3 18 -3 18 -4 21 C-4.99 21 -5.98 21 -7 21 C-9.31 16.38 -11.62 11.76 -14 7 C-11 5 -11 5 -9.25 5.125 C-5.94856802 6.40889021 -3.04237451 8.18627674 0 10 C-0.66 8.88625 -1.32 7.7725 -2 6.625 C-4 3.25 -4 3.25 -4 1 C-2 0 -2 0 0 0 Z " fill="#A31D23" transform="translate(225,266)"/>
<path d="M0 0 C1.77178053 0.956581 3.54239076 1.91532988 5.3125 2.875 C6.29863281 3.40867188 7.28476562 3.94234375 8.30078125 4.4921875 C11 6 11 6 14 8 C13.67 9.32 13.34 10.64 13 12 C6.565 12.495 6.565 12.495 0 13 C2.64 14.65 5.28 16.3 8 18 C7.67 18.99 7.34 19.98 7 21 C3.37723685 19.6744419 0.36494652 18.05653045 -2.8125 15.875 C-3.60269531 15.33617187 -4.39289063 14.79734375 -5.20703125 14.2421875 C-5.79871094 13.83226562 -6.39039063 13.42234375 -7 13 C-6.67 11.68 -6.34 10.36 -6 9 C-0.06 8.505 -0.06 8.505 6 8 C2.535 6.02 2.535 6.02 -1 4 C-0.67 2.68 -0.34 1.36 0 0 Z " fill="#9F141A" transform="translate(264,222)"/>
<path d="M0 0 C0.67413211 1.91405367 1.3390332 3.83136026 2 5.75 C2.37125 6.81734375 2.7425 7.8846875 3.125 8.984375 C4 12 4 12 4 16 C2.68 16.33 1.36 16.66 0 17 C-0.33 15.02 -0.66 13.04 -1 11 C-2.98 11.66 -4.96 12.32 -7 13 C-6.67 14.98 -6.34 16.96 -6 19 C-7.32 19.33 -8.64 19.66 -10 20 C-10.86555948 17.90049414 -11.71711277 15.7952093 -12.5625 13.6875 C-13.27599609 11.92986328 -13.27599609 11.92986328 -14.00390625 10.13671875 C-15 7 -15 7 -14 4 C-13.01 4 -12.02 4 -11 4 C-10.34 5.32 -9.68 6.64 -9 8 C-7.02 8 -5.04 8 -3 8 C-3.66 5.69 -4.32 3.38 -5 1 C-3 0 -3 0 0 0 Z " fill="#A6272C" transform="translate(210,274)"/>
<path d="M0 0 C-0.28273697 3.39284367 -0.85712028 4.83610856 -3.125 7.4375 C-6 9 -6 9 -9.8125 8.25 C-10.864375 7.8375 -11.91625 7.425 -13 7 C-13 7.99 -13 8.98 -13 10 C-8.38 9.67 -3.76 9.34 1 9 C1 10.65 1 12.3 1 14 C-7.415 14.495 -7.415 14.495 -16 15 C-17.50934217 11.98131566 -17.17510672 9.32702771 -17 6 C-16.34 5.01 -15.68 4.02 -15 3 C-11.89505874 2.68154449 -9.98273923 3.00575359 -7 4 C-1.70967742 0 -1.70967742 0 0 0 Z " fill="#B4494E" transform="translate(293,147)"/>
<path d="M0 0 C0.33 1.32 0.66 2.64 1 4 C-0.65 4.33 -2.3 4.66 -4 5 C-3.67 7.31 -3.34 9.62 -3 12 C-0.69 11.01 1.62 10.02 4 9 C4.33 10.32 4.66 11.64 5 13 C3.06629769 14.00732399 1.12789694 15.00563288 -0.8125 16 C-1.89144531 16.556875 -2.97039062 17.11375 -4.08203125 17.6875 C-7 19 -7 19 -10 19 C-10.33 17.68 -10.66 16.36 -11 15 C-9.35 14.67 -7.7 14.34 -6 14 C-6.66 12.02 -7.32 10.04 -8 8 C-9.98 8.66 -11.96 9.32 -14 10 C-14.33 8.68 -14.66 7.36 -15 6 C-13.06629769 4.99267601 -11.12789694 3.99436712 -9.1875 3 C-8.10855469 2.443125 -7.02960938 1.88625 -5.91796875 1.3125 C-3 0 -3 0 0 0 Z " fill="#A21C22" transform="translate(280,108)"/>
<path d="M0 0 C2.32421875 0.1328125 2.32421875 0.1328125 5 1 C6.58203125 3.6171875 6.58203125 3.6171875 7.8125 6.875 C8.23144531 7.94492187 8.65039062 9.01484375 9.08203125 10.1171875 C10 13 10 13 10 16 C8.68 16 7.36 16 6 16 C5.67 15.34 5.34 14.68 5 14 C1.97065509 13.34227572 1.97065509 13.34227572 -1 13 C-1 14.32 -1 15.64 -1 17 C-1.99 17 -2.98 17 -4 17 C-3.58411954 10.80481527 -2.39748106 5.73310689 0 0 Z " fill="#A92E33" transform="translate(147,26)"/>
<path d="M0 0 C4.40114397 0.50298788 6.71195019 2.08772731 10 5 C9.25 9.75 9.25 9.75 7 12 C4.27130593 11.96712417 1.7033382 11.43602229 -1 11 C-1.33 12.65 -1.66 14.3 -2 16 C-3.32 15.67 -4.64 15.34 -6 15 C-4.36041242 9.76727367 -2.61047965 4.84803364 0 0 Z " fill="#A92D32" transform="translate(106,271)"/>
<path d="M0 0 C6.2054142 0.48320848 11.99945246 1.33318124 18 3 C17.3125 4.9375 17.3125 4.9375 16 7 C13.375 7.75 13.375 7.75 11 8 C10.67 9.32 10.34 10.64 10 12 C10.66 12 11.32 12 12 12 C11.67 13.32 11.34 14.64 11 16 C10.34 16 9.68 16 9 16 C6.8359375 13.76953125 6.8359375 13.76953125 4.375 10.8125 C3.55773438 9.84957031 2.74046875 8.88664062 1.8984375 7.89453125 C-0.09600074 4.85362851 -0.45322813 3.54165408 0 0 Z " fill="#A6272D" transform="translate(38,93)"/>
<path d="M0 0 C5.36095277 1.58921525 10.70843973 3.18972938 16 5 C15.34 6.32 14.68 7.64 14 9 C12.35 9 10.7 9 9 9 C7.95550089 12.13349732 8.06576355 12.98968256 9 16 C7.68 16 6.36 16 5 16 C3.0078125 13.515625 3.0078125 13.515625 1.125 10.25 C0.48820313 9.18265625 -0.14859375 8.1153125 -0.8046875 7.015625 C-2 4 -2 4 -1.1953125 1.609375 C-0.60363281 0.81273437 -0.60363281 0.81273437 0 0 Z " fill="#A42025" transform="translate(252,240)"/>
<path d="M0 0 C5.96652354 1.57013777 10.82909025 4.75029782 16 8 C15.01 9.485 15.01 9.485 14 11 C13.21625 10.79375 12.4325 10.5875 11.625 10.375 C10.75875 10.25125 9.8925 10.1275 9 10 C6.71271266 11.83883881 6.71271266 11.83883881 6.875 14.625 C6.91625 15.40875 6.9575 16.1925 7 17 C6.01 17.33 5.02 17.66 4 18 C2.93870574 15.75749122 1.90118767 13.50850911 0.875 11.25 C0.57207031 10.61578125 0.26914063 9.9815625 -0.04296875 9.328125 C-2.18359806 4.54904562 -2.18359806 4.54904562 -1.1796875 1.546875 C-0.79039063 1.03640625 -0.40109375 0.5259375 0 0 Z " fill="#A7282E" transform="translate(67,59)"/>
<path d="M0 0 C-0.125 2.3125 -0.125 2.3125 -1 5 C-5.86206897 8 -5.86206897 8 -9 8 C-9 7.34 -9 6.68 -9 6 C-10.65 6 -12.3 6 -14 6 C-14 7.32 -14 8.64 -14 10 C-9.71 10 -5.42 10 -1 10 C-1 10.99 -1 11.98 -1 13 C-6.28 13 -11.56 13 -17 13 C-17.37036181 4.48167842 -17.37036181 4.48167842 -15.609375 2.19140625 C-14 1 -14 1 -12.0625 1.25 C-10.70588374 1.743315 -9.35161553 2.24314418 -8 2.75 C-5.85395385 3.24125943 -5.85395385 3.24125943 -3.875 1.5625 C-2 0 -2 0 0 0 Z " fill="#AA3035" transform="translate(36,154)"/>
<path d="M0 0 C1.32 0.66 2.64 1.32 4 2 C2.35 3.32 0.7 4.64 -1 6 C-0.62095792 9.29075996 -0.62095792 9.29075996 1 12 C3.45792029 12.33343551 3.45792029 12.33343551 6 12 C6.66 11.01 7.32 10.02 8 9 C8.66 9 9.32 9 10 9 C10.33 10.32 10.66 11.64 11 13 C8.16311615 15.75091768 6.43295171 16.9226872 2.5 17.625 C-1 17 -1 17 -4 14.4375 C-6 11 -6 11 -6.125 7.375 C-4.8203037 3.46091109 -3.4254314 2.19578936 0 0 Z " fill="#A7292F" transform="translate(240,253)"/>
<path d="M0 0 C0.99 0.66 1.98 1.32 3 2 C2.34 3.65 1.68 5.3 1 7 C1.721875 6.34 2.44375 5.68 3.1875 5 C6 3 6 3 8.625 2.5625 C11 3 11 3 12.875 4.125 C14 6 14 6 13.8125 9 C13 12 13 12 11 15 C9.68 14.34 8.36 13.68 7 13 C7.66 12.34 8.32 11.68 9 11 C9.6425235 8.93125966 9.6425235 8.93125966 10 7 C9.278125 7.474375 8.55625 7.94875 7.8125 8.4375 C5.04556666 9.97468519 3.15382345 10.83400929 0 11 C-1.875 9.9375 -1.875 9.9375 -3 8 C-2.77669287 4.35265021 -2.61627165 2.61627165 0 0 Z " fill="#A42127" transform="translate(269,212)"/>
<path d="M0 0 C1.1446875 0.3403125 1.1446875 0.3403125 2.3125 0.6875 C2.3125 1.3475 2.3125 2.0075 2.3125 2.6875 C1.673125 2.81125 1.03375 2.935 0.375 3.0625 C-0.305625 3.26875 -0.98625 3.475 -1.6875 3.6875 C-2.0175 4.3475 -2.3475 5.0075 -2.6875 5.6875 C-2.06101562 5.66429687 -1.43453125 5.64109375 -0.7890625 5.6171875 C0.02820313 5.59914063 0.84546875 5.58109375 1.6875 5.5625 C2.49960938 5.53929687 3.31171875 5.51609375 4.1484375 5.4921875 C6.3125 5.6875 6.3125 5.6875 8.3125 7.6875 C8.75 10.0625 8.75 10.0625 8.3125 12.6875 C6.0625 15.0625 6.0625 15.0625 3.3125 16.6875 C1 16.4375 1 16.4375 -0.6875 15.6875 C-0.6875 15.0275 -0.6875 14.3675 -0.6875 13.6875 C0.9625 13.3575 2.6125 13.0275 4.3125 12.6875 C4.3125 11.6975 4.3125 10.7075 4.3125 9.6875 C3.68601562 9.72230469 3.05953125 9.75710937 2.4140625 9.79296875 C1.59679687 9.82003906 0.77953125 9.84710938 -0.0625 9.875 C-0.87460938 9.90980469 -1.68671875 9.94460937 -2.5234375 9.98046875 C-3.23757812 9.88378906 -3.95171875 9.78710938 -4.6875 9.6875 C-6.6875 6.6875 -6.6875 6.6875 -6.5 4.6875 C-5.04960066 1.11728624 -4.01778221 -0.46718398 0 0 Z " fill="#A82A2F" transform="translate(82.6875,49.3125)"/>
<path d="M0 0 C0.33 0.99 0.66 1.98 1 3 C-0.98 3 -2.96 3 -5 3 C-5 3.99 -5 4.98 -5 6 C-3.35 6 -1.7 6 0 6 C0 6.99 0 7.98 0 9 C-1.32 9 -2.64 9 -4 9 C-4 10.32 -4 11.64 -4 13 C-2.02 13 -0.04 13 2 13 C2 13.99 2 14.98 2 16 C-2.95 16.495 -2.95 16.495 -8 17 C-8.33 11.72 -8.66 6.44 -9 1 C-5.8035914 -0.06546953 -3.34252724 -0.07427838 0 0 Z " fill="#A7282D" transform="translate(180,283)"/>
<path d="M0 0 C2.375 0.8125 2.375 0.8125 3.375 2.8125 C1.725 2.8125 0.075 2.8125 -1.625 2.8125 C-1.625 3.8025 -1.625 4.7925 -1.625 5.8125 C-0.531875 5.750625 0.56125 5.68875 1.6875 5.625 C5.375 5.8125 5.375 5.8125 7.375 7 C8.375 8.8125 8.375 8.8125 8.25 11.3125 C7.30549098 14.0110972 6.73545732 15.2107611 4.375 16.8125 C1.6875 17 1.6875 17 -0.625 16.8125 C-0.955 15.8225 -1.285 14.8325 -1.625 13.8125 C0.025 13.4825 1.675 13.1525 3.375 12.8125 C3.705 11.8225 4.035 10.8325 4.375 9.8125 C2.456875 9.874375 2.456875 9.874375 0.5 9.9375 C-1.6796875 10.0078125 -1.6796875 10.0078125 -3.625 9.8125 C-5.625 7.8125 -5.625 7.8125 -5.9375 5.375 C-5.625 2.8125 -5.625 2.8125 -4.4375 0.9375 C-2.625 -0.1875 -2.625 -0.1875 0 0 Z " fill="#A52228" transform="translate(93.625,42.1875)"/>
<path d="M0 0 C0.33 1.32 0.66 2.64 1 4 C-1.31 4.66 -3.62 5.32 -6 6 C-6.16687448 8.41645782 -6.16687448 8.41645782 -6 11 C-5.34 11.66 -4.68 12.32 -4 13 C-0.40320934 12.67673447 -0.40320934 12.67673447 3 12 C3 13.32 3 14.64 3 16 C-0.11549872 17.55774936 -3.6044388 17.56480622 -7 17 C-9.08775787 15.46317823 -9.87317732 14.36607195 -10.72265625 11.9140625 C-11.60995272 5.93755984 -11.60995272 5.93755984 -9.89453125 3.30078125 C-6.74924493 0.47891768 -4.16792995 -0.61293087 0 0 Z " fill="#A42026" transform="translate(130,29)"/>
<path d="M0 0 C0.99 0 1.98 0 3 0 C2.70703125 2.05078125 2.4140625 4.1015625 2.12109375 6.15234375 C2.08113281 6.76207031 2.04117187 7.37179688 2 8 C3.18424326 9.41577477 3.18424326 9.41577477 6.5625 9.0625 C8.2640625 9.0315625 8.2640625 9.0315625 10 9 C10.33 7.02 10.66 5.04 11 3 C12.32 3.33 13.64 3.66 15 4 C14.15492958 11.43661972 14.15492958 11.43661972 11 14 C6.71238174 14.79731801 3.23055719 14.72032616 -0.5625 12.5 C-2.70160209 8.77982245 -2.41255904 6.26311009 -2 2 C-1.34 1.34 -0.68 0.68 0 0 Z " fill="#A6262B" transform="translate(27,119)"/>
<path d="M0 0 C1.32 0 2.64 0 4 0 C3.70703125 2.05078125 3.4140625 4.1015625 3.12109375 6.15234375 C3.08113281 6.76207031 3.04117188 7.37179688 3 8 C4.12534105 9.35618499 4.12534105 9.35618499 7.0625 9.0625 C8.031875 9.041875 9.00125 9.02125 10 9 C10.66 7.35 11.32 5.7 12 4 C12.99 4.33 13.98 4.66 15 5 C14.67815583 7.89659753 14.38591512 10.31897331 12.9375 12.875 C9.73394073 14.73513119 6.53154951 14.7282962 3 14 C0 11.875 0 11.875 -2 9 C-2.57991403 4.85775694 -2.34549674 3.51824511 0 0 Z " fill="#AC353B" transform="translate(32,105)"/>
<path d="M0 0 C0.33 0.99 0.66 1.98 1 3 C-0.98 3.66 -2.96 4.32 -5 5 C-5 7.64 -5 10.28 -5 13 C-0.545 12.505 -0.545 12.505 4 12 C3.67 13.32 3.34 14.64 3 16 C-0.12860495 17.56430248 -2.55602925 17.35627284 -6 17 C-8.57836875 14.88441539 -9.72448716 13.31258474 -10.4140625 10.02734375 C-10.5625 7.9375 -10.5625 7.9375 -10 4 C-6.91722952 0.47683374 -4.64436785 -0.5307849 0 0 Z " fill="#A21C22" transform="translate(193,280)"/>
<path d="M0 0 C1.65 0.33 3.3 0.66 5 1 C5.77303488 9.03956273 5.77303488 9.03956273 2.9375 12.5625 C-0.72764707 14.35608261 -2.9661045 14.58674844 -7 14 C-9.4375 12.375 -9.4375 12.375 -11 10 C-11.25 6.75 -11.25 6.75 -11 4 C-10.01 3.67 -9.02 3.34 -8 3 C-7.34 4.98 -6.68 6.96 -6 9 C-2.535 8.505 -2.535 8.505 1 8 C0.67 5.36 0.34 2.72 0 0 Z " fill="#A31E24" transform="translate(283,125)"/>
<path d="M0 0 C1.32 0 2.64 0 4 0 C3.67 4.29 3.34 8.58 3 13 C5.475 13.99 5.475 13.99 8 15 C7.67 15.99 7.34 16.98 7 18 C5.5199159 17.88637738 4.04089926 17.75877092 2.5625 17.625 C1.73878906 17.55539062 0.91507813 17.48578125 0.06640625 17.4140625 C-0.61550781 17.27742188 -1.29742187 17.14078125 -2 17 C-3.59190467 13.81619067 -2.28749598 10.71923676 -1.5625 7.375 C-1.41490234 6.66859375 -1.26730469 5.9621875 -1.11523438 5.234375 C-0.74950507 3.48831251 -0.37552879 1.74398116 0 0 Z " fill="#A7272D" transform="translate(134,281)"/>
<path d="M0 0 C3.63 0 7.26 0 11 0 C11 0.99 11 1.98 11 3 C9.68 3 8.36 3 7 3 C7 7.62 7 12.24 7 17 C5.68 17 4.36 17 3 17 C3 12.38 3 7.76 3 3 C2.01 3 1.02 3 0 3 C0 2.01 0 1.02 0 0 Z " fill="#AB3439" transform="translate(159,26)"/>
<path d="M0 0 C4.67105792 1.55701931 8.08705685 4.08447373 12 7 C12 5.02 12 3.04 12 1 C12.99 1 13.98 1 15 1 C14.67 4.96 14.34 8.92 14 13 C10.71456484 11.35728242 7.79153134 9.66158093 4.75 7.625 C3.85796875 7.03976563 2.9659375 6.45453125 2.046875 5.8515625 C1.37140625 5.24054688 0.6959375 4.62953125 0 4 C0 2.68 0 1.36 0 0 Z " fill="#A21A20" transform="translate(278,180)"/>
<path d="M0 0 C0 0.99 0 1.98 0 3 C-0.99 3 -1.98 3 -3 3 C-3 7.29 -3 11.58 -3 16 C-4.32 16 -5.64 16 -7 16 C-7 11.71 -7 7.42 -7 3 C-8.32 3 -9.64 3 -11 3 C-11 2.34 -11 1.68 -11 1 C-7.27569643 0.30710631 -3.78916254 -0.11144596 0 0 Z " fill="#A32025" transform="translate(169,284)"/>
<path d="M0 0 C0.99 0 1.98 0 3 0 C3.226875 0.61875 3.45375 1.2375 3.6875 1.875 C5.37929835 4.61410209 6.99244161 5.05024472 10 6 C9.484375 6.556875 8.96875 7.11375 8.4375 7.6875 C6.70523302 9.94085007 6.70523302 9.94085007 7.3125 12.75 C7.6528125 13.86375 7.6528125 13.86375 8 15 C6.68 15.33 5.36 15.66 4 16 C3.13444052 13.90049414 2.28288723 11.7952093 1.4375 9.6875 C0.72400391 7.92986328 0.72400391 7.92986328 -0.00390625 6.13671875 C-1 3 -1 3 0 0 Z " fill="#A31E24" transform="translate(196,278)"/>
<path d="M0 0 C1.65 0 3.3 0 5 0 C4.85941524 2.45873768 4.71277001 4.91685175 4.5625 7.375 C4.50352539 8.42300781 4.50352539 8.42300781 4.44335938 9.4921875 C4.11328125 14.7734375 4.11328125 14.7734375 3 17 C1.35 17 -0.3 17 -2 17 C-1.34 11.39 -0.68 5.78 0 0 Z " fill="#B3474C" transform="translate(173,27)"/>
<path d="M0 0 C0 1.32 0 2.64 0 4 C-1.98 4.99 -1.98 4.99 -4 6 C-3.67 6.66 -3.34 7.32 -3 8 C-5.31 8 -7.62 8 -10 8 C-10 8.66 -10 9.32 -10 10 C-11.65 9.67 -13.3 9.34 -15 9 C-15 7.35 -15 5.7 -15 4 C-12.87607494 3.3299166 -10.75082476 2.66403203 -8.625 2 C-7.44164062 1.62875 -6.25828125 1.2575 -5.0390625 0.875 C-2 0 -2 0 0 0 Z " fill="#AE393E" transform="translate(37,188)"/>
<path d="M0 0 C0.50015625 0.15339844 1.0003125 0.30679688 1.515625 0.46484375 C4.90327766 1.19457396 8.29961519 1.36356477 11.75 1.5625 C12.44738281 1.60568359 13.14476562 1.64886719 13.86328125 1.69335938 C15.57531922 1.79889596 17.28763561 1.8998991 19 2 C19 2.33 19 2.66 19 3 C12.565 3.495 12.565 3.495 6 4 C8.64 5.65 11.28 7.3 14 9 C13.67 9.99 13.34 10.98 13 12 C9.37723685 10.6744419 6.36494652 9.05653045 3.1875 6.875 C2.39730469 6.33617187 1.60710937 5.79734375 0.79296875 5.2421875 C0.20128906 4.83226562 -0.39039063 4.42234375 -1 4 C-0.67 2.68 -0.34 1.36 0 0 Z " fill="#A5252A" transform="translate(258,231)"/>
<path d="M0 0 C-0.2818891 3.38266921 -0.83064437 4.81072018 -3.125 7.375 C-6.84618828 9.47828033 -8.92348429 8.95918017 -13 8 C-13.99 9.32 -14.98 10.64 -16 12 C-16.09765625 5.84765625 -16.09765625 5.84765625 -16 4 C-15 3 -15 3 -12.625 2.875 C-10 3 -10 3 -7 4 C-1.70967742 0 -1.70967742 0 0 0 Z " fill="#A92E33" transform="translate(293,147)"/>
<path d="M0 0 C2.375 0.75 2.375 0.75 3.375 1.75 C3.6732732 4.58359542 3.73102594 6.18785378 2.1875 8.625 C0.375 9.75 0.375 9.75 -2.25 9.5 C-4.625 8.75 -4.625 8.75 -5.625 7.75 C-5.9232732 4.91640458 -5.98102594 3.31214622 -4.4375 0.875 C-2.625 -0.25 -2.625 -0.25 0 0 Z " fill="#F7EEEE" transform="translate(123.625,281.25)"/>
<path d="M0 0 C2.41088579 0.23331153 3.78051858 0.84322756 5.75 2.25 C7.42837659 4.59972723 7.29718836 6.17671054 7 9 C6 10 6 10 3.0625 10.25 C2.051875 10.1675 1.04125 10.085 0 10 C-2.14915785 6.77626323 -2.38286803 5.73296326 -2 2 C-1.34 1.34 -0.68 0.68 0 0 Z " fill="#F5EAEA" transform="translate(107,38)"/>
<path d="M0 0 C3.5625 0.1875 3.5625 0.1875 5.5625 2.1875 C5.00694444 6.74305556 5.00694444 6.74305556 3.5625 8.1875 C0.625 8.375 0.625 8.375 -2.4375 8.1875 C-4.4375 6.1875 -4.4375 6.1875 -4.625 3.625 C-4.33162457 -0.18888063 -3.96935544 0.2165103 0 0 Z " fill="#F8EFEF" transform="translate(28.4375,139.8125)"/>
<path d="M0 0 C3 0.25 3 0.25 5 2.25 C4.75 4.8125 4.75 4.8125 4 7.25 C1.26752652 8.61623674 -0.98198902 8.378426 -4 8.25 C-5 7.25 -5 7.25 -5.1875 4.8125 C-4.90287463 0.92261994 -3.80737989 0.31728166 0 0 Z " fill="#F8F1F1" transform="translate(28,174.75)"/>
<path d="M0 0 C2.4375 0.1875 2.4375 0.1875 3.4375 1.1875 C3.70043056 5.21910191 3.73154844 6.74642734 1.4375 10.1875 C-3.4375 9.3125 -3.4375 9.3125 -4.5625 8.1875 C-4.75 5.25 -4.75 5.25 -4.5625 2.1875 C-2.5625 0.1875 -2.5625 0.1875 0 0 Z " fill="#F9F2F2" transform="translate(188.5625,32.8125)"/>
<path d="M0 0 C3.74581464 1.24860488 4.43074593 2.65364827 6.625 5.875 C7.23601562 6.75929688 7.84703125 7.64359375 8.4765625 8.5546875 C10 11 10 11 11 14 C9.68 14.33 8.36 14.66 7 15 C4.03 11.04 1.06 7.08 -2 3 C-1.34 2.01 -0.68 1.02 0 0 Z " fill="#A42026" transform="translate(228,262)"/>
<path d="M0 0 C1 3 1 3 1.1875 6.5 C1.63050809 10.26817452 1.63050809 10.26817452 5.0625 11.9375 C6.031875 12.288125 7.00125 12.63875 8 13 C7.67 13.66 7.34 14.32 7 15 C1.60490463 15.49046322 1.60490463 15.49046322 -1.3125 13.125 C-4.11054116 9.60154076 -4.09675866 7.45089835 -4 3 C-3.34 3 -2.68 3 -2 3 C-1.34 2.01 -0.68 1.02 0 0 Z " fill="#A31F25" transform="translate(105,37)"/>
<path d="M0 0 C1.32 0 2.64 0 4 0 C5.19088986 5.38027025 6.2919519 10.45291384 6 16 C4.68 16 3.36 16 2 16 C1.66259915 14.08404518 1.33023588 12.16720278 1 10.25 C0.814375 9.18265625 0.62875 8.1153125 0.4375 7.015625 C0 4 0 4 0 0 Z " fill="#A52127" transform="translate(134,28)"/>
<path d="M0 0 C3.23772838 1.07924279 3.86999864 1.75143068 5.9375 4.3125 C8.1728826 7.02171682 10.46464284 9.56215658 13 12 C11.02 12.99 11.02 12.99 9 14 C8.37351563 13.36191406 7.74703125 12.72382813 7.1015625 12.06640625 C6.28429687 11.24011719 5.46703125 10.41382813 4.625 9.5625 C3.81289062 8.73878906 3.00078125 7.91507813 2.1640625 7.06640625 C0.17651485 4.96565328 0.17651485 4.96565328 -2 4 C-2 3.34 -2 2.68 -2 2 C-1.34 2 -0.68 2 0 2 C0 1.34 0 0.68 0 0 Z " fill="#A42127" transform="translate(244,248)"/>
<path d="M0 0 C1.95766281 -0.08082094 3.91626728 -0.13910778 5.875 -0.1875 C7.51082031 -0.23970703 7.51082031 -0.23970703 9.1796875 -0.29296875 C10.11039062 -0.19628906 11.04109375 -0.09960938 12 0 C12.66 0.99 13.32 1.98 14 3 C13.34 3 12.68 3 12 3 C12 4.98 12 6.96 12 9 C8.98472262 7.59422879 6.4052059 5.93873852 3.75 3.9375 C3.04359375 3.41027344 2.3371875 2.88304687 1.609375 2.33984375 C1.07828125 1.89769531 0.5471875 1.45554688 0 1 C0 0.67 0 0.34 0 0 Z " fill="#F5EAEA" transform="translate(278,178)"/>
<path d="M0 0 C4.40114397 0.50298788 6.71195019 2.08772731 10 5 C9.625 7.4375 9.625 7.4375 9 10 C8.01 10.495 8.01 10.495 7 11 C6.01 10.34 5.02 9.68 4 9 C4.33 7.68 4.66 6.36 5 5 C4.34 5 3.68 5 3 5 C1.61767557 6.62626404 0.28062485 8.2925002 -1 10 C-1.125 2.25 -1.125 2.25 0 0 Z " fill="#A21C22" transform="translate(106,271)"/>
<path d="M0 0 C0 1.32 0 2.64 0 4 C-7.92 5.485 -7.92 5.485 -16 7 C-16 5.68 -16 4.36 -16 3 C-14.08487728 2.49411853 -12.16783078 1.99551609 -10.25 1.5 C-8.64898437 1.08234375 -8.64898437 1.08234375 -7.015625 0.65625 C-4 0 -4 0 0 0 Z " fill="#A1191F" transform="translate(291,140)"/>
<path d="M0 0 C2.10353495 -0.0810206 4.20795952 -0.13919907 6.3125 -0.1875 C7.48425781 -0.22230469 8.65601563 -0.25710937 9.86328125 -0.29296875 C13 0 13 0 14.91796875 1.51171875 C15.27503906 2.00285156 15.63210938 2.49398437 16 3 C15.67 3.66 15.34 4.32 15 5 C10.05 4.67 5.1 4.34 0 4 C0 2.68 0 1.36 0 0 Z " fill="#AA3136" transform="translate(277,164)"/>
<path d="M0 0 C5.36095277 1.58921525 10.70843973 3.18972938 16 5 C15.34 6.32 14.68 7.64 14 9 C11.53199953 7.84826645 9.95216435 6.95216435 8 5 C6.01178687 4.60235737 4.01055661 4.26224651 2 4 C2 4.66 2 5.32 2 6 C1.01 6 0.02 6 -1 6 C-1.625 4.125 -1.625 4.125 -2 2 C-1.34 1.34 -0.68 0.68 0 0 Z " fill="#A31C22" transform="translate(252,240)"/>
<path d="M0 0 C0.66 0.33 1.32 0.66 2 1 C1.67 4.3 1.34 7.6 1 11 C2.65 11.33 4.3 11.66 6 12 C3.38058783 13.74627478 1.96175123 14.38722388 -1 15 C-3.3746355 11.86548114 -4.01284245 10.37243096 -3.875 6.375 C-3.04048825 3.15616895 -2.61314024 1.93145148 0 0 Z " fill="#A6252A" transform="translate(23,171)"/>
<path d="M0 0 C0.99 0.33 1.98 0.66 3 1 C2.896875 2.051875 2.79375 3.10375 2.6875 4.1875 C2.63931296 8.15521993 2.63931296 8.15521993 5.5 10.9375 C6.325 11.618125 7.15 12.29875 8 13 C5.25 13.3125 5.25 13.3125 2 13 C-0.97534584 10.33784846 -1.90708839 8.78974872 -2.375 4.8125 C-2 2 -2 2 0 0 Z " fill="#9F141A" transform="translate(116,281)"/>
<path d="M0 0 C0.66 0.99 1.32 1.98 2 3 C5.11610554 3.58592634 5.11610554 3.58592634 8.625 3.6875 C9.81351563 3.75324219 11.00203125 3.81898438 12.2265625 3.88671875 C13.14179687 3.92410156 14.05703125 3.96148437 15 4 C15 4.99 15 5.98 15 7 C9.72 7 4.44 7 -1 7 C-1 1 -1 1 0 0 Z " fill="#9D1016" transform="translate(20,160)"/>
<path d="M0 0 C0.66 0 1.32 0 2 0 C2.67354499 1.43429001 3.33859701 2.87257057 4 4.3125 C4.556875 5.51326172 4.556875 5.51326172 5.125 6.73828125 C6 9 6 9 6 12 C4.68 12 3.36 12 2 12 C1.67 11.34 1.34 10.68 1 10 C-0.64363134 9.27840576 -2.31050386 8.60648579 -4 8 C-2.68 7.67 -1.36 7.34 0 7 C-0.185625 6.030625 -0.37125 5.06125 -0.5625 4.0625 C-0.706875 3.051875 -0.85125 2.04125 -1 1 C-0.67 0.67 -0.34 0.34 0 0 Z " fill="#A6272C" transform="translate(151,30)"/>
<path d="M0 0 C0.33 1.32 0.66 2.64 1 4 C-0.11375 4.28875 -1.2275 4.5775 -2.375 4.875 C-6.18938523 6.05877473 -7.29370009 6.66587795 -9.125 10.125 C-9.41375 10.74375 -9.7025 11.3625 -10 12 C-11 11 -11 11 -11.4375 8.25 C-11 5 -11 5 -8.3125 2.125 C-5.02933524 0.01881883 -3.77046382 -0.55447997 0 0 Z " fill="#A6252B" transform="translate(130,29)"/>
<path d="M0 0 C3.30190001 0.8844375 5.14865921 1.49210558 7.5 3.9375 C7.5 4.9275 7.5 5.9175 7.5 6.9375 C6.51 6.9375 5.52 6.9375 4.5 6.9375 C4.17 7.9275 3.84 8.9175 3.5 9.9375 C3.17 8.2875 2.84 6.6375 2.5 4.9375 C0.52 4.9375 -1.46 4.9375 -3.5 4.9375 C-3.5 4.2775 -3.5 3.6175 -3.5 2.9375 C-4.82 3.2675 -6.14 3.5975 -7.5 3.9375 C-5.03376305 0.68206723 -4.1879479 -0.07478478 0 0 Z " fill="#A52228" transform="translate(188.5,29.0625)"/>
<path d="M0 0 C3.63 0 7.26 0 11 0 C11 1.32 11 2.64 11 4 C5.88888889 8 5.88888889 8 3 8 C3 7.34 3 6.68 3 6 C3.66 6 4.32 6 5 6 C5.33 4.68 5.66 3.36 6 2 C4.02 2 2.04 2 0 2 C0 1.34 0 0.68 0 0 Z " fill="#A1191F" transform="translate(27,196)"/>
<path d="M0 0 C1.32 0.33 2.64 0.66 4 1 C3.5205537 5.21912747 2.83374881 7.79663178 0 11 C-2.97 10.505 -2.97 10.505 -6 10 C-6.33 9.01 -6.66 8.02 -7 7 C-5.02 6.67 -3.04 6.34 -1 6 C-0.67 4.02 -0.34 2.04 0 0 Z " fill="#AA2F34" transform="translate(38,122)"/>
<path d="M0 0 C4.75481646 0.57634139 7.97048212 2.55068521 12 5 C11.01 6.485 11.01 6.485 10 8 C7.69 7.34 5.38 6.68 3 6 C3 5.34 3 4.68 3 4 C1.68 3.34 0.36 2.68 -1 2 C-0.67 1.34 -0.34 0.68 0 0 Z " fill="#A21B21" transform="translate(71,62)"/>
<path d="M0 0 C2.375 0.8125 2.375 0.8125 3.375 2.8125 C1.725 2.8125 0.075 2.8125 -1.625 2.8125 C-1.625 3.8025 -1.625 4.7925 -1.625 5.8125 C0.685 5.8125 2.995 5.8125 5.375 5.8125 C5.375 6.1425 5.375 6.4725 5.375 6.8125 C3.73067294 7.17359542 2.0844792 7.52620076 0.4375 7.875 C-0.93728516 8.17083984 -0.93728516 8.17083984 -2.33984375 8.47265625 C-3.09394531 8.58480469 -3.84804687 8.69695313 -4.625 8.8125 C-5.625 7.8125 -5.625 7.8125 -5.875 5.4375 C-5.625 2.8125 -5.625 2.8125 -4.4375 0.9375 C-2.625 -0.1875 -2.625 -0.1875 0 0 Z " fill="#A82A30" transform="translate(93.625,42.1875)"/>
<path d="M0 0 C0 1.65 0 3.3 0 5 C2.97 5.495 2.97 5.495 6 6 C5.67 6.99 5.34 7.98 5 9 C3.5199159 8.88637738 2.04089926 8.75877092 0.5625 8.625 C-0.26121094 8.55539062 -1.08492187 8.48578125 -1.93359375 8.4140625 C-2.61550781 8.27742188 -3.29742187 8.14078125 -4 8 C-5 6 -5 6 -4.1875 3.4375 C-2.51282051 0 -2.51282051 0 0 0 Z " fill="#A92C32" transform="translate(136,290)"/>
<path d="M0 0 C0.66 0 1.32 0 2 0 C1.63529412 7.29411765 1.63529412 7.29411765 -1.25 10.5 C-4.17031986 12.09290174 -5.73400687 12.37325636 -9 12 C-8.01 11.34 -7.02 10.68 -6 10 C-6.66 9.34 -7.32 8.68 -8 8 C-4.91190305 6.23537317 -3.76687864 6 0 6 C0 4.02 0 2.04 0 0 Z " fill="#AC363B" transform="translate(129,283)"/>
<path d="M0 0 C1.04449911 3.13349732 0.93423645 3.98968256 0 7 C0.66 7 1.32 7 2 7 C1.67 8.32 1.34 9.64 1 11 C0.34 11 -0.32 11 -1 11 C-3.6875 8.1875 -3.6875 8.1875 -6 5 C-5.67 4.01 -5.34 3.02 -5 2 C-3 1.375 -3 1.375 -1 1 C-0.67 0.67 -0.34 0.34 0 0 Z " fill="#A42127" transform="translate(48,98)"/>
<path d="M0 0 C5.7097955 0.41778991 8.60957142 2.57546571 13 6 C12.67 6.99 12.34 7.98 12 9 C8.36679834 8.41083216 6.45533138 6.94481799 3.75 4.5 C3.04359375 3.8709375 2.3371875 3.241875 1.609375 2.59375 C1.07828125 2.0678125 0.5471875 1.541875 0 1 C0 0.67 0 0.34 0 0 Z " fill="#A42127" transform="translate(46,85)"/>
<path d="M0 0 C0.66 0 1.32 0 2 0 C2.2475 0.94875 2.495 1.8975 2.75 2.875 C3.6857077 6.08693191 3.6857077 6.08693191 6.125 7.375 C6.74375 7.58125 7.3625 7.7875 8 8 C6.75 9.5625 6.75 9.5625 5 11 C2.9375 10.875 2.9375 10.875 1 10 C-1.29404844 6.55892734 -1.26293056 5.03160191 -1 1 C-0.67 0.67 -0.34 0.34 0 0 Z " fill="#A82B30" transform="translate(273,128)"/>
<path d="M0 0 C0.99 0.33 1.98 0.66 3 1 C3.6875 3.0625 3.6875 3.0625 4 5 C4.66 5 5.32 5 6 5 C6.33 7.31 6.66 9.62 7 12 C6.01 12.33 5.02 12.66 4 13 C3.32694982 11.39850114 2.66177773 9.79368971 2 8.1875 C1.62875 7.29417969 1.2575 6.40085937 0.875 5.48046875 C0 3 0 3 0 0 Z " fill="#A0161C" transform="translate(67,64)"/>
<path d="M0 0 C0.66 0 1.32 0 2 0 C2 1.32 2 2.64 2 4 C3.32 4 4.64 4 6 4 C5.67 6.31 5.34 8.62 5 11 C2.525 10.01 2.525 10.01 0 9 C0 6.03 0 3.06 0 0 Z " fill="#A21B20" transform="translate(206,43)"/>
<path d="M0 0 C0.66 0 1.32 0 2 0 C2.625 2.375 2.625 2.375 3 5 C2.34 5.66 1.68 6.32 1 7 C0.01 7 -0.98 7 -2 7 C-2 8.32 -2 9.64 -2 11 C-2.99 11 -3.98 11 -5 11 C-4.67 8.03 -4.34 5.06 -4 2 C-3.67 2.66 -3.34 3.32 -3 4 C-2.34 3.67 -1.68 3.34 -1 3 C-0.67 2.01 -0.34 1.02 0 0 Z " fill="#B85256" transform="translate(148,32)"/>
<path d="M0 0 C3.63 0 7.26 0 11 0 C11 0.33 11 0.66 11 1 C9.02 1 7.04 1 5 1 C5 1.66 5 2.32 5 3 C3.6875 4.4375 3.6875 4.4375 2 6 C1.443125 6.556875 0.88625 7.11375 0.3125 7.6875 C-0.120625 8.120625 -0.55375 8.55375 -1 9 C-1 8.34 -1 7.68 -1 7 C-1.66 7 -2.32 7 -3 7 C-3 6.34 -3 5.68 -3 5 C-2.34 5 -1.68 5 -1 5 C-0.67 3.35 -0.34 1.7 0 0 Z " fill="#A92C32" transform="translate(153,284)"/>
<path d="M0 0 C0.33 0.66 0.66 1.32 1 2 C0.34 2 -0.32 2 -1 2 C-0.34 3.32 0.32 4.64 1 6 C0.01 6.495 0.01 6.495 -1 7 C-0.34 7.66 0.32 8.32 1 9 C-0.9914056 9.38133299 -2.99279077 9.71325582 -5 10 C-6 9 -6 9 -6.4375 6.6875 C-6 4 -6 4 -3 1.6875 C-2.01 1.130625 -1.02 0.57375 0 0 Z " fill="#A92E33" transform="translate(31,200)"/>
<path d="M0 0 C0.99 0 1.98 0 3 0 C2.67 3.96 2.34 7.92 2 12 C-2 10 -2 10 -4 8 C-3.01 7.34 -2.02 6.68 -1 6 C-0.26656572 2.93443402 -0.26656572 2.93443402 0 0 Z " fill="#A21B21" transform="translate(290,181)"/>
<path d="M0 0 C0.66 0 1.32 0 2 0 C2.33 1.32 2.66 2.64 3 4 C-0.0684847 6.97550031 -1.46236331 7.96474513 -5.8125 8.25 C-6.864375 8.1675 -7.91625 8.085 -9 8 C-7.38944319 6.22838751 -6.1075243 5.05213299 -3.9375 4 C-1.66757845 3.02674942 -1.66757845 3.02674942 0 0 Z " fill="#AB3136" transform="translate(248,262)"/>
<path d="M0 0 C1.1446875 0.3403125 1.1446875 0.3403125 2.3125 0.6875 C2.3125 1.3475 2.3125 2.0075 2.3125 2.6875 C0.9925 3.0175 -0.3275 3.3475 -1.6875 3.6875 C-1.6875 4.3475 -1.6875 5.0075 -1.6875 5.6875 C0.2925 6.3475 2.2725 7.0075 4.3125 7.6875 C4.3125 8.0175 4.3125 8.3475 4.3125 8.6875 C1.3425 8.3575 -1.6275 8.0275 -4.6875 7.6875 C-5.375 5.375 -5.375 5.375 -5.6875 2.6875 C-4.0011022 -0.12316299 -3.27764429 -0.38112143 0 0 Z " fill="#A42025" transform="translate(82.6875,49.3125)"/>
<path d="M0 0 C2.64 0 5.28 0 8 0 C8 1.65 8 3.3 8 5 C7.34 5 6.68 5 6 5 C6 5.66 6 6.32 6 7 C4.35 7 2.7 7 1 7 C2.32 6.67 3.64 6.34 5 6 C5 5.01 5 4.02 5 3 C3.35 3 1.7 3 0 3 C0 2.01 0 1.02 0 0 Z " fill="#F4E9E9" transform="translate(175,286)"/>
<path d="M0 0 C1.134375 0.020625 2.26875 0.04125 3.4375 0.0625 C3.4375 1.0525 3.4375 2.0425 3.4375 3.0625 C-0.18223402 4.37876692 -2.65817131 5.0625 -6.5625 5.0625 C-4.14811644 0.07277397 -4.14811644 0.07277397 0 0 Z " fill="#A1191F" transform="translate(27.5625,135.9375)"/>
<path d="M0 0 C0.33 0.99 0.66 1.98 1 3 C-0.98 3 -2.96 3 -5 3 C-5.33 3.66 -5.66 4.32 -6 5 C-6 4.34 -6 3.68 -6 3 C-6.66 3 -7.32 3 -8 3 C-8 4.98 -8 6.96 -8 9 C-8.33 9 -8.66 9 -9 9 C-9 6.36 -9 3.72 -9 1 C-5.8035914 -0.06546953 -3.34252724 -0.07427838 0 0 Z " fill="#A92E33" transform="translate(180,283)"/>
<path d="M0 0 C1.64666203 0.1135629 3.29236082 0.24117381 4.9375 0.375 C5.85402344 0.44460937 6.77054688 0.51421875 7.71484375 0.5859375 C8.84599609 0.79089844 8.84599609 0.79089844 10 1 C10.33 1.66 10.66 2.32 11 3 C5.25 4.125 5.25 4.125 3 3 C2.67 3.66 2.34 4.32 2 5 C1.34 4.67 0.68 4.34 0 4 C0 2.68 0 1.36 0 0 Z " fill="#A21C22" transform="translate(38,93)"/>
<path d="M0 0 C0.33 0 0.66 0 1 0 C1.74926071 3.66305234 2.2380014 6.42355152 1 10 C1.66 10.33 2.32 10.66 3 11 C2.67 12.65 2.34 14.3 2 16 C1.01 15.67 0.02 15.34 -1 15 C-1.09038099 9.84828377 -0.84681133 5.08086796 0 0 Z " fill="#AC3339" transform="translate(277,174)"/>
<path d="M0 0 C1.2065625 0.0309375 1.2065625 0.0309375 2.4375 0.0625 C2.7675 1.0525 3.0975 2.0425 3.4375 3.0625 C2.839375 3.31 2.24125 3.5575 1.625 3.8125 C-0.84897521 5.22620012 -1.99620255 6.71305383 -3.5625 9.0625 C-3.66015625 2.91015625 -3.66015625 2.91015625 -3.5625 1.0625 C-2.5625 0.0625 -2.5625 0.0625 0 0 Z " fill="#A0161C" transform="translate(280.5625,149.9375)"/>
<path d="M0 0 C1.875 0.125 1.875 0.125 4 1 C5.25 4.0625 5.25 4.0625 6 7 C4.02 7.99 4.02 7.99 2 9 C0.14223235 5.86501708 -0.20140476 3.62528568 0 0 Z " fill="#AB3136" transform="translate(20,141)"/>
<path d="M0 0 C0.66 0.33 1.32 0.66 2 1 C1.5020163 4.73487777 1.12508244 6.81237635 -1 10 C-2.32 9.34 -3.64 8.68 -5 8 C-4.54625 7.608125 -4.0925 7.21625 -3.625 6.8125 C-1.72357081 4.69167513 -0.93795972 2.66957765 0 0 Z " fill="#A82B31" transform="translate(281,217)"/>
<path d="M0 0 C2.97 1.98 2.97 1.98 6 4 C5.67 5.32 5.34 6.64 5 8 C1.535 6.02 1.535 6.02 -2 4 C-1.34 2.68 -0.68 1.36 0 0 Z " fill="#A92C31" transform="translate(53,73)"/>
<path d="M0 0 C3.96 1.98 3.96 1.98 8 4 C6.68 4.99 5.36 5.98 4 7 C2.35 6.01 0.7 5.02 -1 4 C-0.67 2.68 -0.34 1.36 0 0 Z " fill="#A6252A" transform="translate(264,222)"/>
<path d="M0 0 C0.99 0.33 1.98 0.66 3 1 C2.47731534 3.76276177 1.89130413 6.3260876 1 9 C0.01 8.67 -0.98 8.34 -2 8 C-1.125 2.25 -1.125 2.25 0 0 Z " fill="#AC3338" transform="translate(282,199)"/>
<path d="M0 0 C0.80824219 0.19464844 1.61648438 0.38929688 2.44921875 0.58984375 C3.06410156 0.74582031 3.67898438 0.90179688 4.3125 1.0625 C3.6525 2.3825 2.9925 3.7025 2.3125 5.0625 C-0.15550047 3.91076645 -1.73533565 3.01466435 -3.6875 1.0625 C-5.75624034 0.4199765 -5.75624034 0.4199765 -7.6875 0.0625 C-4.39053895 -1.03648702 -3.28255097 -0.80874444 0 0 Z " fill="#9F1319" transform="translate(263.6875,243.9375)"/>
<path d="M0 0 C0.33 0 0.66 0 1 0 C1.33 3.63 1.66 7.26 2 11 C0.68 11 -0.64 11 -2 11 C-1.34 7.37 -0.68 3.74 0 0 Z " fill="#A92F34" transform="translate(138,33)"/>
<path d="M0 0 C1.87184371 3.74368742 2.23999767 4.8400791 2.125 8.75 C2.10695312 9.54921875 2.08890625 10.3484375 2.0703125 11.171875 C2.04710937 11.77515625 2.02390625 12.3784375 2 13 C1.01 13 0.02 13 -1 13 C-0.67 8.71 -0.34 4.42 0 0 Z " fill="#9E1016" transform="translate(163,29)"/>
<path d="M0 0 C0.33 1.32 0.66 2.64 1 4 C-1.31 4 -3.62 4 -6 4 C-6.33 3.01 -6.66 2.02 -7 1 C-4.53721199 -0.231394 -2.7204945 -0.07159196 0 0 Z " fill="#B03E43" transform="translate(130,29)"/>
<path d="M0 0 C3.63 0 7.26 0 11 0 C11 0.99 11 1.98 11 3 C7.37 3 3.74 3 0 3 C0 2.01 0 1.02 0 0 Z " fill="#A92C31" transform="translate(159,26)"/>
<path d="M0 0 C0.33 0 0.66 0 1 0 C1 1.65 1 3.3 1 5 C4.465 4.505 4.465 4.505 8 4 C8 4.99 8 5.98 8 7 C3.545 7.495 3.545 7.495 -1 8 C-0.67 5.36 -0.34 2.72 0 0 Z " fill="#9D0F15" transform="translate(174,292)"/>
<path d="M0 0 C1.98 0.495 1.98 0.495 4 1 C4 2.98 4 4.96 4 7 C2.35 7 0.7 7 -1 7 C-0.67 4.69 -0.34 2.38 0 0 Z " fill="#A82B30" transform="translate(148,293)"/>
<path d="M0 0 C2.0625 2.3125 2.0625 2.3125 4 5 C3.67 5.99 3.34 6.98 3 8 C2.01 8 1.02 8 0 8 C-1.0625 6.1875 -1.0625 6.1875 -2 4 C-1 1 -1 1 0 0 Z " fill="#A92C32" transform="translate(218,279)"/>
<path d="M0 0 C-0.33 0.99 -0.66 1.98 -1 3 C-2.65 3.33 -4.3 3.66 -6 4 C-6.99 2.35 -7.98 0.7 -9 -1 C-5.23375329 -2.25541557 -3.62811066 -1.37061958 0 0 Z " fill="#C0686C" transform="translate(47,98)"/>
<path d="M0 0 C0.66 0 1.32 0 2 0 C2.33 1.98 2.66 3.96 3 6 C2.34 6 1.68 6 1 6 C1 6.66 1 7.32 1 8 C-0.65 8 -2.3 8 -4 8 C-2.68 7.67 -1.36 7.34 0 7 C-0.185625 6.030625 -0.37125 5.06125 -0.5625 4.0625 C-0.706875 3.051875 -0.85125 2.04125 -1 1 C-0.67 0.67 -0.34 0.34 0 0 Z " fill="#A21A20" transform="translate(151,30)"/>
<path d="M0 0 C2.475 0.99 2.475 0.99 5 2 C4.67 2.99 4.34 3.98 4 5 C3.34 5 2.68 5 2 5 C1.34 5.66 0.68 6.32 0 7 C-0.66 5.35 -1.32 3.7 -2 2 C-1.34 2 -0.68 2 0 2 C0 1.34 0 0.68 0 0 Z " fill="#C36E72" transform="translate(254,244)"/>
<path d="M0 0 C0 1.32 0 2.64 0 4 C-2.31 4.33 -4.62 4.66 -7 5 C-7 4.01 -7 3.02 -7 2 C-2.25 0 -2.25 0 0 0 Z " fill="#A0151B" transform="translate(37,188)"/>
<path d="M0 0 C0 1.98 0 3.96 0 6 C-1.32 5.67 -2.64 5.34 -4 5 C-4.33 3.68 -4.66 2.36 -5 1 C-3 0 -3 0 0 0 Z " fill="#A92E33" transform="translate(210,274)"/>
<path d="M0 0 C0.66 0.33 1.32 0.66 2 1 C1.44271087 4.34373475 0.64826111 7.03312999 -1 10 C-1.66 7.69 -2.32 5.38 -3 3 C-2.01 2.01 -1.02 1.02 0 0 Z " fill="#AE393E" transform="translate(23,171)"/>
<path d="M0 0 C0.33 1.32 0.66 2.64 1 4 C-0.65 4.33 -2.3 4.66 -4 5 C-4 4.34 -4 3.68 -4 3 C-5.32 2.67 -6.64 2.34 -8 2 C-5.09399739 0.74335022 -3.20395416 0 0 0 Z " fill="#A7282D" transform="translate(280,108)"/>
<path d="M0 0 C0.66 1.98 1.32 3.96 2 6 C1.01 6.66 0.02 7.32 -1 8 C-4 3.25 -4 3.25 -4 1 C-2 0 -2 0 0 0 Z " fill="#A7282D" transform="translate(225,266)"/>
<path d="M0 0 C3.14624993 -0.26218749 4.61837017 -0.24754367 7.3125 1.5 C8.1478125 2.2425 8.1478125 2.2425 9 3 C6.69 3.33 4.38 3.66 2 4 C1.34 2.68 0.68 1.36 0 0 Z " fill="#A0151B" transform="translate(236,265)"/>
<path d="M0 0 C0.99 0 1.98 0 3 0 C3 2.64 3 5.28 3 8 C3.66 8.33 4.32 8.66 5 9 C4.01 9 3.02 9 2 9 C-0.29013653 5.5647952 -0.17842973 4.014669 0 0 Z " fill="#A8292E" transform="translate(114,283)"/>
<path d="M0 0 C0.99 0.33 1.98 0.66 3 1 C2.67 2.32 2.34 3.64 2 5 C0.68 5.33 -0.64 5.66 -2 6 C-1.125 1.125 -1.125 1.125 0 0 Z " fill="#F1DFE0" transform="translate(109,275)"/>
<path d="M0 0 C1.65 0 3.3 0 5 0 C5 0.66 5 1.32 5 2 C6.65 1.67 8.3 1.34 10 1 C9.67 1.66 9.34 2.32 9 3 C6.03 3 3.06 3 0 3 C0 2.01 0 1.02 0 0 Z " fill="#F5E9EA" transform="translate(22,160)"/>
<path d="M0 0 C4.81449408 0.48144941 7.60171741 0.8008587 12 3 C8.04 3 4.08 3 0 3 C0 2.01 0 1.02 0 0 Z " fill="#F3E3E4" transform="translate(280,154)"/>
<path d="M0 0 C-1.1875 1.5 -1.1875 1.5 -3 3 C-5.6875 3.1875 -5.6875 3.1875 -8 3 C-8 2.01 -8 1.02 -8 0 C-4.71023192 -1.09658936 -3.28696233 -0.79953138 0 0 Z " fill="#9E1117" transform="translate(286,136)"/>
<path d="M0 0 C0.33 0.99 0.66 1.98 1 3 C-1.64 3 -4.28 3 -7 3 C-7.33 2.34 -7.66 1.68 -8 1 C-5.29120665 -0.35439668 -2.99066732 -0.06501451 0 0 Z " fill="#9F141A" transform="translate(42,116)"/>
<path d="M0 0 C0.66 0 1.32 0 2 0 C1.625 1.9375 1.625 1.9375 1 4 C-1.95664519 5.4783226 -4.74229737 5.06032783 -8 5 C-8 4.67 -8 4.34 -8 4 C-7.236875 3.896875 -6.47375 3.79375 -5.6875 3.6875 C-2.78105605 2.94399108 -1.96433971 2.15141968 0 0 Z " fill="#A92D33" transform="translate(195,292)"/>
<path d="M0 0 C3 1 3 1 4 3 C4.039992 4.99960012 4.04346799 7.00047242 4 9 C3.01 8.67 2.02 8.34 1 8 C-0.35439668 5.29120665 -0.06501451 2.99066732 0 0 Z " fill="#B14247" transform="translate(133,285)"/>
<path d="M0 0 C1.32 0 2.64 0 4 0 C2.79618552 2.49361571 1.54571278 4.68143083 0 7 C-1 6 -1 6 -1.125 3.5 C-1 1 -1 1 0 0 Z " fill="#A42127" transform="translate(32,105)"/>
<path d="M0 0 C1.98 0.66 3.96 1.32 6 2 C6 2.66 6 3.32 6 4 C4.125 4.625 4.125 4.625 2 5 C1.34 4.34 0.68 3.68 0 3 C0 2.01 0 1.02 0 0 Z " fill="#A7282E" transform="translate(233,272)"/>
<path d="M0 0 C0 1.32 0 2.64 0 4 C-4.455 3.01 -4.455 3.01 -9 2 C-9 1.67 -9 1.34 -9 1 C-5.846632 0.29925156 -3.27275026 0 0 0 Z " fill="#AC3338" transform="translate(291,140)"/>
<path d="M0 0 C0.99 0 1.98 0 3 0 C3 1.65 3 3.3 3 5 C1.68 5.33 0.36 5.66 -1 6 C-0.67 4.02 -0.34 2.04 0 0 Z " fill="#9E1319" transform="translate(193,36)"/>
<path d="M0 0 C0.7425 0.0825 1.485 0.165 2.25 0.25 C1.26 0.91 0.27 1.57 -0.75 2.25 C0.24 2.91 1.23 3.57 2.25 4.25 C0.6 4.58 -1.05 4.91 -2.75 5.25 C-2.75 4.59 -2.75 3.93 -2.75 3.25 C-4.07 3.58 -5.39 3.91 -6.75 4.25 C-3.42692308 0.31153846 -3.42692308 0.31153846 0 0 Z " fill="#B54A4F" transform="translate(187.75,28.75)"/>
<path d="M0 0 C0 0.99 0 1.98 0 3 C-3.37462715 2.45276317 -5.08235 1.9451 -8 0 C-4.71303767 -0.79953138 -3.28976808 -1.09658936 0 0 Z " fill="#AB3136" transform="translate(42,204)"/>
<path d="M0 0 C2.31 0 4.62 0 7 0 C6.01 0.495 6.01 0.495 5 1 C5 1.66 5 2.32 5 3 C3.02 3 1.04 3 -1 3 C-0.67 2.01 -0.34 1.02 0 0 Z " fill="#9C0C12" transform="translate(279,158)"/>
<path d="M0 0 C0.66 0 1.32 0 2 0 C1.67 2.64 1.34 5.28 1 8 C0.34 7.67 -0.32 7.34 -1 7 C-1.04254356 5.00045254 -1.04080783 2.99958364 -1 1 C-0.67 0.67 -0.34 0.34 0 0 Z " fill="#A52429" transform="translate(273,128)"/>
<path d="M0 0 C2.31 0.33 4.62 0.66 7 1 C7 1.99 7 2.98 7 4 C4.69 4 2.38 4 0 4 C0 2.68 0 1.36 0 0 Z " fill="#9E1117" transform="translate(29,129)"/>
<path d="M0 0 C0.99 0.33 1.98 0.66 3 1 C2.625 3.9375 2.625 3.9375 2 7 C1.01 7.495 1.01 7.495 0 8 C0 5.36 0 2.72 0 0 Z " fill="#A31F24" transform="translate(44,109)"/>
<path d="M0 0 C1.32 0 2.64 0 4 0 C4.33 1.65 4.66 3.3 5 5 C4.01 5.33 3.02 5.66 2 6 C1.34 4.02 0.68 2.04 0 0 Z " fill="#A31E23" transform="translate(69,71)"/>
<path d="M0 0 C0.66 0.33 1.32 0.66 2 1 C2 2.98 2 4.96 2 7 C1.01 7.495 1.01 7.495 0 8 C-1.125 2.25 -1.125 2.25 0 0 Z " fill="#A21C22" transform="translate(292,167)"/>
<path d="M0 0 C-0.33 0.66 -0.66 1.32 -1 2 C-3.31 2 -5.62 2 -8 2 C-8 1.34 -8 0.68 -8 0 C-5.13822943 -1.43088528 -3.06624227 -0.59991697 0 0 Z " fill="#A52429" transform="translate(33,150)"/>
<path d="M0 0 C1.4606285 2.64738916 2 3.89448334 2 7 C1.34 7 0.68 7 0 7 C-0.33 7.66 -0.66 8.32 -1 9 C-1.80967438 6.08517222 -2.21845993 4.53886783 -1.0625 1.6875 C-0.711875 1.130625 -0.36125 0.57375 0 0 Z " fill="#AE3A3F" transform="translate(275,113)"/>
<path d="M0 0 C2.4375 0.75 2.4375 0.75 5 2 C5.8125 4.125 5.8125 4.125 6 6 C5.01 6.495 5.01 6.495 4 7 C4 6.34 4 5.68 4 5 C3.34 5 2.68 5 2 5 C1.34 3.35 0.68 1.7 0 0 Z " fill="#CE898C" transform="translate(69,64)"/>
<path d="M0 0 C-0.66 1.32 -1.32 2.64 -2 4 C-5.10551666 4 -6.35261084 3.4606285 -9 2 C-2.25 0 -2.25 0 0 0 Z " fill="#AB3136" transform="translate(117,46)"/>
<path d="M0 0 C1.5625 1.25 1.5625 1.25 3 3 C2.6875 5.1875 2.6875 5.1875 2 7 C1.01 6.67 0.02 6.34 -1 6 C-0.67 4.02 -0.34 2.04 0 0 Z " fill="#AE3B40" transform="translate(198,43)"/>
<path d="M0 0 C0.99 0 1.98 0 3 0 C3 1.98 3 3.96 3 6 C2.01 6 1.02 6 0 6 C0 4.02 0 2.04 0 0 Z " fill="#9E1117" transform="translate(174,28)"/>
<path d="M0 0 C2.97 0 5.94 0 9 0 C8.67 0.99 8.34 1.98 8 3 C4.62537285 2.45276317 2.91765 1.9451 0 0 Z " fill="#A11A20" transform="translate(133,296)"/>
<path d="M0 0 C0.99 0 1.98 0 3 0 C3.33 1.32 3.66 2.64 4 4 C2.68 4.33 1.36 4.66 0 5 C-0.5625 3.0625 -0.5625 3.0625 -1 1 C-0.67 0.67 -0.34 0.34 0 0 Z " fill="#A82B30" transform="translate(196,278)"/>
<path d="M0 0 C1.32 0.66 2.64 1.32 4 2 C3.34 3.32 2.68 4.64 2 6 C1.01 5.34 0.02 4.68 -1 4 C-0.67 2.68 -0.34 1.36 0 0 Z " fill="#A21C22" transform="translate(258,231)"/>
<path d="M0 0 C0.66 0.33 1.32 0.66 2 1 C1.67 1.66 1.34 2.32 1 3 C1.66 3 2.32 3 3 3 C3 3.99 3 4.98 3 6 C0.53199953 4.84826645 -1.04783565 3.95216435 -3 2 C-2.01 1.34 -1.02 0.68 0 0 Z " fill="#AA3035" transform="translate(289,187)"/>
<path d="M0 0 C1.32 0.33 2.64 0.66 4 1 C4 2.32 4 3.64 4 5 C2.68 4.67 1.36 4.34 0 4 C0 2.68 0 1.36 0 0 Z " fill="#B14146" transform="translate(38,122)"/>
<path d="M0 0 C0.99 0.33 1.98 0.66 3 1 C2.34 2.65 1.68 4.3 1 6 C0.34 5.67 -0.32 5.34 -1 5 C-0.67 3.35 -0.34 1.7 0 0 Z " fill="#A31F24" transform="translate(213,38)"/>
</svg>
