<svg xmlns="http://www.w3.org/2000/svg" xmlns:xlink="http://www.w3.org/1999/xlink" width="320" zoomAndPan="magnify" viewBox="0 0 240 239.999995" height="320" preserveAspectRatio="xMidYMid meet" version="1.0"><defs><clipPath id="20f1ea46e2"><path d="M 51.613281 54.472656 L 188.113281 54.472656 L 188.113281 185.722656 L 51.613281 185.722656 Z M 51.613281 54.472656 " clip-rule="nonzero"/></clipPath></defs><g clip-path="url(#20f1ea46e2)"><path fill="#24620e" d="M 135.386719 144.070312 L 77.625 184.464844 L 92.507812 138.886719 L 100.238281 144.484375 L 94.691406 161.132812 L 132.363281 133.988281 Z M 141.3125 117.6875 L 161.476562 185.453125 L 123.613281 157.199219 L 131.398438 151.679688 L 144.875 161.789062 L 130.792969 117.308594 Z M 117.410156 104.234375 L 188.382812 104.316406 L 149.707031 132.210938 L 146.609375 123.183594 L 160.992188 113.554688 L 114.074219 114.214844 Z M 97.34375 122.347656 L 119.816406 54.484375 L 135.285156 101.140625 L 125.738281 101.261719 L 120.042969 83.390625 L 105.785156 128.632812 Z M 108.859375 146.738281 L 51.601562 104.710938 L 99.9375 104.339844 L 97.117188 113.457031 L 79.179688 113.386719 L 117.4375 140.636719 Z M 108.859375 146.738281 " fill-opacity="1" fill-rule="evenodd"/></g></svg>