<?xml version="1.0" encoding="UTF-8"?>
<svg version="1.1" xmlns="http://www.w3.org/2000/svg" width="320" height="320">
<path d="M0 0 C105.6 0 211.2 0 320 0 C320 105.6 320 211.2 320 320 C214.4 320 108.8 320 0 320 C0 214.4 0 108.8 0 0 Z " fill="#FEFEFE" transform="translate(0,0)"/>
<path d="M0 0 C2.33111554 2.33111554 2.8251553 3.97430941 3.86352539 7.08886719 C4.22052017 8.15047058 4.57751495 9.21207397 4.94532776 10.30584717 C5.32559616 11.45788635 5.70586456 12.60992554 6.09765625 13.796875 C6.68914711 15.56916473 6.68914711 15.56916473 7.29258728 17.3772583 C8.12676448 19.88145221 8.95853679 22.38629686 9.78637695 24.89257812 C10.63417263 27.45863697 11.48662341 30.02306192 12.34399414 32.5859375 C13.57941802 36.27959547 14.80842127 39.97532324 16.03515625 43.671875 C16.41744888 44.81581726 16.79974152 45.95975952 17.19361877 47.1383667 C17.5474614 48.21257874 17.90130402 49.28679077 18.26586914 50.39355469 C18.57738419 51.33350281 18.88889923 52.27345093 19.20985413 53.24188232 C20 56 20 56 21 62 C16.71 62 12.42 62 8 62 C5.69 55.07 3.38 48.14 1 41 C0.01 43.97 -0.98 46.94 -2 50 C-2.80554616 52.25249898 -3.61760594 54.50268383 -4.4375 56.75 C-6.83793691 63.4425614 -8.94751035 70.19437642 -11 77 C-11.86836889 79.8354073 -12.74546856 82.6680381 -13.625 85.5 C-13.83125 86.1707959 -14.0375 86.8415918 -14.25 87.53271484 C-15.35557059 91.09082149 -16.55930096 94.56347017 -18 98 C-22.04420651 96.22054913 -25.46078487 93.60470327 -29 91 C-28.42751739 86.25353521 -27.48398167 81.96135989 -25.9621582 77.43237305 C-25.75707138 76.81652847 -25.55198456 76.2006839 -25.34068298 75.56617737 C-24.66639244 73.54607322 -23.98365066 71.52893734 -23.30078125 69.51171875 C-22.82280927 68.08528578 -22.34537691 66.65867188 -21.86845398 65.23188782 C-20.61184182 61.47727774 -19.34806434 57.7251186 -18.08270264 53.97344971 C-16.81719352 50.21743789 -15.55822692 46.45923595 -14.29882812 42.70117188 C-12.3829458 36.98637942 -10.46370916 31.27272723 -8.54150391 25.56005859 C-5.67694442 17.04582096 -2.83257101 8.52492749 0 0 Z " fill="#2A6614" transform="translate(159,73)"/>
<path d="M0 0 C21.12 0 42.24 0 64 0 C63 5 63 5 61 12 C53.41 12.33 45.82 12.66 38 13 C40.43375 14.711875 42.8675 16.42375 45.375 18.1875 C52.43114755 23.16073832 59.4443692 28.19070968 66.43652344 33.25341797 C73.26898153 38.19997359 80.1293895 43.10662307 87 48 C83.80568766 51.23726107 80.60320996 54.22038089 77 57 C74.20724123 55.67626016 71.73506127 54.19609726 69.234375 52.3828125 C68.51773682 51.86468994 67.80109863 51.34656738 67.06274414 50.81274414 C66.29953857 50.25578857 65.53633301 49.69883301 64.75 49.125 C63.95005615 48.54419678 63.1501123 47.96339355 62.32592773 47.36499023 C56.54758227 43.15814459 50.81673319 38.89060147 45.10791016 34.59008789 C33.4772458 25.83064554 21.72972736 17.2278881 9.9375 8.6875 C9.16937988 8.13006104 8.40125977 7.57262207 7.60986328 6.99829102 C6.90200684 6.48709717 6.19415039 5.97590332 5.46484375 5.44921875 C4.842146 4.99893311 4.21944824 4.54864746 3.57788086 4.0847168 C1.97832684 2.93159529 1.97832684 2.93159529 0 2 C0 1.34 0 0.68 0 0 Z " fill="#2B6716" transform="translate(69,139)"/>
<path d="M0 0 C0.53532823 1.55759343 1.05265378 3.12138045 1.5625 4.6875 C1.85253906 5.55761719 2.14257812 6.42773438 2.44140625 7.32421875 C3.07549276 10.36162618 2.8979476 12.04225767 2 15 C0.41210938 16.57055664 0.41210938 16.57055664 -1.65625 17.91015625 C-2.42251709 18.41861084 -3.18878418 18.92706543 -3.97827148 19.45092773 C-5.2265271 20.24865601 -5.2265271 20.24865601 -6.5 21.0625 C-8.25212212 22.22011395 -10.00340876 23.37899332 -11.75390625 24.5390625 C-12.63836426 25.11946289 -13.52282227 25.69986328 -14.43408203 26.29785156 C-18.15724536 28.7676798 -21.79953882 31.34449438 -25.4375 33.9375 C-26.83171956 34.92622091 -28.22625601 35.91449512 -29.62109375 36.90234375 C-30.32862793 37.40362793 -31.03616211 37.90491211 -31.76513672 38.42138672 C-36.67024911 41.88615149 -41.59511017 45.32291191 -46.52099609 48.75805664 C-50.68160619 51.66270232 -54.82627186 54.58588267 -58.94140625 57.5546875 C-59.72064453 58.11414063 -60.49988281 58.67359375 -61.30273438 59.25 C-62.77572624 60.3092301 -64.2446988 61.37407901 -65.70898438 62.4453125 C-70.66503906 66 -70.66503906 66 -74 66 C-67.73 46.86 -61.46 27.72 -55 8 C-50.86356447 8 -50.30197567 8.15232641 -47.25 10.5 C-46.63640625 10.9640625 -46.0228125 11.428125 -45.390625 11.90625 C-44.93171875 12.2671875 -44.4728125 12.628125 -44 13 C-45.10718187 18.50985802 -46.50013616 23.76770285 -48.4140625 29.0546875 C-49.14420304 31.14014733 -49.14420304 31.14014733 -49 34 C-41.33812377 28.54306886 -33.69046096 23.06675797 -26.0625 17.5625 C-25.30984863 17.01996582 -24.55719727 16.47743164 -23.78173828 15.91845703 C-20.03321568 13.21132463 -16.29899607 10.48744173 -12.58984375 7.7265625 C-11.89947021 7.21407959 -11.20909668 6.70159668 -10.49780273 6.17358398 C-9.19342084 5.20330749 -7.89200315 4.22902972 -6.59399414 3.25024414 C-2.22150395 0 -2.22150395 0 0 0 Z " fill="#296614" transform="translate(177,179)"/>
<path d="M0 0 C31.02 0 62.04 0 94 0 C88.37641723 5.62358277 88.37641723 5.62358277 85.20703125 7.875 C84.50304199 8.37894287 83.79905273 8.88288574 83.07373047 9.40209961 C82.32752441 9.92940674 81.58131836 10.45671387 80.8125 11 C79.20695583 12.14702986 77.6014894 13.29416853 75.99609375 14.44140625 C75.17351074 15.02680176 74.35092773 15.61219727 73.50341797 16.21533203 C69.44855041 19.10601682 65.41196332 22.02189181 61.375 24.9375 C60.65417236 25.45634766 59.93334473 25.97519531 59.19067383 26.50976562 C54.95061626 29.56697451 50.77271538 32.68518962 46.65087891 35.90063477 C45 37 45 37 43 37 C42.46317332 35.77773359 41.94624468 34.54671915 41.4375 33.3125 C41.14746094 32.62800781 40.85742188 31.94351563 40.55859375 31.23828125 C40 29 40 29 41 24 C45.62 20.7 50.24 17.4 55 14 C35.86 13.67 16.72 13.34 -3 13 C-2 5 -2 5 0 0 Z " fill="#296614" transform="translate(156,139)"/>
<path d="M0 0 C4.29 0 8.58 0 13 0 C18.8046762 15.18146083 22.9844707 30.88859941 27.3125 46.5390625 C29.8294453 55.55997264 32.62560581 64.47672071 35.51953125 73.3828125 C39 84.18305266 39 84.18305266 39 89 C36.17250036 87.66558629 33.70389432 86.16230649 31.19140625 84.3046875 C30.45422363 83.76126709 29.71704102 83.21784668 28.95751953 82.65795898 C27.77198486 81.77539429 27.77198486 81.77539429 26.5625 80.875 C25.73862793 80.26406494 24.91475586 79.65312988 24.06591797 79.02368164 C21.3729461 77.02152 18.68552702 75.0121355 16 73 C15.05527832 72.29246582 14.11055664 71.58493164 13.13720703 70.85595703 C10.29524508 68.72244013 7.4589911 66.58159054 4.625 64.4375 C3.74013916 63.77153809 2.85527832 63.10557617 1.94360352 62.41943359 C-2.33287368 59.16780852 -6.33307126 55.93100797 -10 52 C-8.78622542 50.96091258 -7.55320279 49.944281 -6.3125 48.9375 C-5.62800781 48.36902344 -4.94351563 47.80054688 -4.23828125 47.21484375 C-2 46 -2 46 0.34375 46 C4.03954713 47.39135892 6.7638727 49.59165045 9.8125 52.0625 C10.40998047 52.53494141 11.00746094 53.00738281 11.62304688 53.49414062 C13.08843126 54.65472506 14.54510876 55.82628832 16 57 C15.31019633 51.45434151 13.56596076 46.44067838 11.75 41.1875 C8.99299992 33.07446766 6.43140867 24.93429895 4.06640625 16.69921875 C2.92578083 12.74254377 1.71878795 8.80985793 0.48046875 4.8828125 C0 3 0 3 0 0 Z " fill="#286513" transform="translate(175,157)"/>
</svg>
