<svg xmlns="http://www.w3.org/2000/svg" xmlns:xlink="http://www.w3.org/1999/xlink" width="320" zoomAndPan="magnify" viewBox="0 0 240 239.999995" height="320" preserveAspectRatio="xMidYMid meet" version="1.0"><defs><clipPath id="d36f18d96f"><path d="M 40 170 L 62 170 L 62 193 L 40 193 Z M 40 170 " clip-rule="nonzero"/></clipPath><clipPath id="417b4b2057"><path d="M 34.710938 182.511719 L 48.023438 166.269531 L 63.683594 179.105469 L 50.375 195.347656 Z M 34.710938 182.511719 " clip-rule="nonzero"/></clipPath><clipPath id="e8f44df8f5"><path d="M 34.710938 182.511719 L 48.023438 166.269531 L 63.683594 179.105469 L 50.375 195.347656 Z M 34.710938 182.511719 " clip-rule="nonzero"/></clipPath><clipPath id="8e34c0f502"><path d="M 174 45 L 196 45 L 196 67 L 174 67 Z M 174 45 " clip-rule="nonzero"/></clipPath><clipPath id="f493048e24"><path d="M 168.800781 56.648438 L 182.113281 40.40625 L 197.773438 53.242188 L 184.464844 69.484375 Z M 168.800781 56.648438 " clip-rule="nonzero"/></clipPath><clipPath id="3d6c6abca0"><path d="M 168.800781 56.648438 L 182.113281 40.40625 L 197.773438 53.242188 L 184.464844 69.484375 Z M 168.800781 56.648438 " clip-rule="nonzero"/></clipPath></defs><g clip-path="url(#d36f18d96f)"><g clip-path="url(#417b4b2057)"><g clip-path="url(#e8f44df8f5)"><path fill="#24620e" d="M 53.789062 181.261719 L 52.953125 192.21875 L 48.929688 185.921875 L 50.367188 185.542969 L 51.824219 187.855469 L 52.273438 180.632812 Z M 51.195312 177.941406 L 61.355469 182.207031 L 54.207031 183.980469 L 54.3125 182.496094 L 56.863281 181.871094 L 50.109375 179.171875 Z M 47.210938 179.496094 L 54.234375 170.949219 L 53.773438 178.367188 L 52.378906 177.847656 L 52.640625 175.160156 L 48.085938 180.882812 Z M 47.414062 183.703125 L 41.453125 174.289062 L 48.605469 177.035156 L 47.675781 178.195312 L 44.957031 177.117188 L 49.003906 183.304688 Z M 51.488281 184.726562 L 40.765625 187.476562 L 45.496094 181.613281 L 46.316406 182.851562 L 44.539062 185.007812 L 51.601562 183.085938 Z M 51.488281 184.726562 " fill-opacity="1" fill-rule="evenodd"/></g></g></g><g clip-path="url(#8e34c0f502)"><g clip-path="url(#f493048e24)"><g clip-path="url(#3d6c6abca0)"><path fill="#24620e" d="M 187.878906 55.402344 L 187.042969 66.355469 L 183.015625 60.058594 L 184.457031 59.679688 L 185.914062 61.992188 L 186.363281 54.769531 Z M 185.285156 52.082031 L 195.445312 56.34375 L 188.296875 58.117188 L 188.402344 56.632812 L 190.953125 56.007812 L 184.199219 53.3125 Z M 181.300781 53.632812 L 188.320312 45.085938 L 187.863281 52.503906 L 186.46875 51.984375 L 186.730469 49.300781 L 182.175781 55.019531 Z M 181.5 57.839844 L 175.542969 48.425781 L 182.695312 51.171875 L 181.765625 52.335938 L 179.046875 51.257812 L 183.09375 57.445312 Z M 185.578125 58.863281 L 174.855469 61.613281 L 179.585938 55.75 L 180.40625 56.988281 L 178.625 59.144531 L 185.691406 57.226562 Z M 185.578125 58.863281 " fill-opacity="1" fill-rule="evenodd"/></g></g></g></svg>